<svg width="20.000000" height="30.000000" viewBox="0 0 20 30" fill="none" xmlns="http://www.w3.org/2000/svg" xmlns:xlink="http://www.w3.org/1999/xlink">
	<desc>
			Created with Pixso.
	</desc>
	<defs>
		<clipPath id="clip288_140">
			<rect id="figma-logo-vector " width="20.000000" height="30.000000" fill="white" fill-opacity="0"/>
		</clipPath>
	</defs>
	<g clip-path="url(#clip288_140)">
		<path id="path0 fill" d="M5 30C7.76 30 10 27.76 10 25L10 20L5 20C2.24 20 0 22.24 0 25C0 27.76 2.24 30 5 30Z" fill="#0ACF83" fill-opacity="1.000000" fill-rule="nonzero"/>
		<path id="path1 fill" d="M0 15C0 12.24 2.24 10 5 10L10 10L10 20L5 20C2.24 20 0 17.76 0 15Z" fill="#A259FF" fill-opacity="1.000000" fill-rule="nonzero"/>
		<path id="path1 fill 1" d="M0.01 5C0.01 2.23 2.24 0 5 0L10 0L10 10L5 10C2.24 10 0.01 7.76 0.01 5Z" fill="#F24E1E" fill-opacity="1.000000" fill-rule="nonzero"/>
		<path id="path2 fill" d="M10 0L14.99 0C17.75 0 19.99 2.23 19.99 5C19.99 7.76 17.75 10 14.99 10L10 10L10 0Z" fill="#FF7262" fill-opacity="1.000000" fill-rule="nonzero"/>
		<path id="path3 fill" d="M19.99 15C19.99 17.76 17.75 20 14.99 20C12.23 20 10 17.76 10 15C10 12.24 12.23 10 14.99 10C17.75 10 19.99 12.24 19.99 15Z" fill="#1ABCFE" fill-opacity="1.000000" fill-rule="nonzero"/>
	</g>
</svg>
