<svg width="35.000000" height="28.000000" viewBox="0 0 35 28" fill="none" xmlns="http://www.w3.org/2000/svg" xmlns:xlink="http://www.w3.org/1999/xlink">
	<desc>
			Created with Pixso.
	</desc>
	<defs/>
	<path id="Reading" d="M11.34 0C8 0 5.97 1.95 1.02 1.95C0.45 1.95 0 2.39 0 2.92L0 23.4C5.75 23.69 7.79 21.48 11.34 21.48C13.25 21.48 15.08 22.63 16.47 23.87L16.47 2.38C15.02 1.1 13.21 0 11.34 0ZM12.37 16.6L4.16 16.6C3.6 16.6 3.14 16.16 3.14 15.62C3.14 15.08 3.6 14.64 4.16 14.64L12.37 14.64C12.93 14.64 13.39 15.08 13.39 15.62C13.39 16.16 12.93 16.6 12.37 16.6ZM12.37 12.69L4.16 12.69C3.6 12.69 3.14 12.25 3.14 11.71C3.14 11.17 3.6 10.74 4.16 10.74L12.37 10.74C12.93 10.74 13.39 11.17 13.39 11.71C13.39 12.25 12.93 12.69 12.37 12.69ZM12.37 8.78L4.16 8.78C3.6 8.78 3.14 8.35 3.14 7.81C3.14 7.27 3.6 6.83 4.16 6.83L12.37 6.83C12.93 6.83 13.39 7.27 13.39 7.81C13.39 8.35 12.93 8.78 12.37 8.78ZM11.34 23.43C8.38 23.43 5.98 25.65 0 25.37L0 26.36C0 26.9 0.45 27.34 1.02 27.34L16.47 27.34L16.47 26.7C15.53 25.6 13.28 23.43 11.34 23.43ZM23.65 23.43C21.71 23.43 19.46 25.6 18.52 26.7L18.52 27.34L33.97 27.34C34.54 27.34 35 26.9 35 26.36L35 25.36C28.99 25.64 26.61 23.43 23.65 23.43ZM33.97 1.95C29.02 1.95 26.99 0 23.65 0C21.78 0 19.98 1.1 18.52 2.38L18.52 23.87C19.91 22.63 21.74 21.48 23.65 21.48C27.21 21.48 29.28 23.7 35 23.41L35 2.92C35 2.39 34.54 1.95 33.97 1.95ZM30.83 16.6L22.62 16.6C22.06 16.6 21.6 16.16 21.6 15.62C21.6 15.08 22.06 14.64 22.62 14.64L30.83 14.64C31.39 14.64 31.85 15.08 31.85 15.62C31.85 16.16 31.39 16.6 30.83 16.6ZM30.83 12.69L22.62 12.69C22.06 12.69 21.6 12.25 21.6 11.71C21.6 11.17 22.06 10.74 22.62 10.74L30.83 10.74C31.39 10.74 31.85 11.17 31.85 11.71C31.85 12.25 31.39 12.69 30.83 12.69ZM30.83 8.78L22.62 8.78C22.06 8.78 21.6 8.35 21.6 7.81C21.6 7.27 22.06 6.83 22.62 6.83L30.83 6.83C31.39 6.83 31.85 7.27 31.85 7.81C31.85 8.35 31.39 8.78 30.83 8.78Z" fill="#E5E5E5" fill-opacity="1.000000" fill-rule="nonzero"/>
</svg>
