<svg width="30.000000" height="30.000000" viewBox="0 0 30 30" fill="none" xmlns="http://www.w3.org/2000/svg" xmlns:xlink="http://www.w3.org/1999/xlink">
	<desc>
			Created with Pixso.
	</desc>
	<defs/>
	<path id="football" d="M26.79 5.72C24.75 3.14 21.88 1.27 18.71 0.46C18.48 0.4 18.24 0.54 18.18 0.78C18.12 1.01 18.26 1.25 18.49 1.31C18.63 1.35 18.77 1.38 18.91 1.42C18.89 2.05 18.86 2.65 18.81 3.22C18.28 3.54 16.64 4.48 15 5.03C13.35 4.48 11.71 3.54 11.18 3.22C11.13 2.65 11.1 2.05 11.08 1.43C12.35 1.06 13.67 0.87 15 0.87C15.45 0.87 15.91 0.9 16.36 0.94C16.6 0.96 16.81 0.78 16.84 0.54C16.86 0.3 16.68 0.09 16.44 0.06C15.96 0.02 15.48 0 15 0C12.59 0 10.19 0.58 8.07 1.68C6.02 2.75 4.21 4.31 2.85 6.19C2.71 6.38 2.75 6.66 2.95 6.8C3.03 6.86 3.12 6.89 3.21 6.89C3.34 6.89 3.48 6.82 3.56 6.7C4.26 5.74 5.08 4.87 5.99 4.12C6.48 4.48 6.95 4.84 7.37 5.2C7.33 5.82 7.16 7.7 6.67 9.37C5.28 10.4 3.57 11.2 2.99 11.45C2.53 11.19 2.06 10.89 1.58 10.57C1.81 9.87 2.1 9.19 2.44 8.52C2.55 8.3 2.47 8.04 2.26 7.93C2.04 7.81 1.77 7.9 1.66 8.11C0.57 10.22 0 12.6 0 15C0 19 1.56 22.77 4.39 25.6C7.22 28.43 10.99 30 15 30C19 30 22.77 28.43 25.6 25.6C28.43 22.77 30 19 30 15C30 11.59 28.89 8.39 26.79 5.72ZM26.1 6.27C27.13 7.58 27.91 9.03 28.41 10.57C27.93 10.89 27.46 11.19 27 11.45C26.42 11.2 24.71 10.4 23.32 9.37C22.83 7.7 22.66 5.82 22.62 5.2C23.04 4.84 23.5 4.48 24 4.12C24.77 4.76 25.47 5.47 26.1 6.27ZM15.43 5.81C17.47 5.1 19.38 3.9 19.46 3.85C19.58 3.78 19.65 3.66 19.67 3.52C19.72 2.95 19.76 2.34 19.78 1.71C21.02 2.16 22.2 2.78 23.27 3.56C22.78 3.93 22.31 4.3 21.88 4.67C21.77 4.76 21.72 4.89 21.72 5.03C21.73 5.13 21.84 7.4 22.44 9.48C21.1 10.57 19.75 11.49 19.22 11.84C18.64 11.49 17.08 10.6 15.43 10.02L15.43 5.81L15.43 5.81ZM6.71 3.56C7.28 3.15 7.87 2.78 8.48 2.46C9.04 2.17 9.62 1.92 10.21 1.71C10.23 2.34 10.27 2.95 10.32 3.52C10.34 3.66 10.41 3.78 10.53 3.85C10.61 3.9 12.52 5.1 14.56 5.81L14.56 10.02C12.91 10.6 11.35 11.49 10.77 11.84C10.24 11.49 8.89 10.57 7.55 9.48C8.15 7.4 8.26 5.13 8.27 5.03C8.27 4.89 8.22 4.76 8.11 4.67C7.68 4.3 7.21 3.93 6.71 3.56ZM0.87 15C0.87 13.78 1.02 12.6 1.32 11.45C1.81 11.77 2.29 12.07 2.75 12.33C2.82 12.36 2.89 12.38 2.97 12.38C3.03 12.38 3.08 12.37 3.14 12.35C3.23 12.31 5.29 11.44 7.04 10.19C8.41 11.32 9.77 12.23 10.3 12.58C10.24 13.29 10.11 15.28 10.3 17.44C9.78 17.82 8.38 18.88 7.01 20.18C5.27 18.94 3.23 18.08 3.14 18.04C3.01 17.99 2.87 18 2.76 18.06C2.73 18.08 2.2 18.37 1.41 18.88C1.06 17.63 0.87 16.33 0.87 15ZM10.32 26.86C10.32 26.89 10.26 27.44 10.23 28.29C9.08 27.88 7.99 27.32 6.98 26.63C7.67 26.1 8.09 25.73 8.12 25.72C8.22 25.63 8.27 25.5 8.27 25.36C8.26 25.35 8.25 24.95 8.18 24.33C8.15 24.09 7.94 23.91 7.7 23.94C7.46 23.96 7.28 24.18 7.31 24.42C7.34 24.75 7.36 25.02 7.37 25.19C7.17 25.36 6.77 25.69 6.25 26.08C5.82 25.74 5.4 25.37 5.01 24.98C3.51 23.48 2.38 21.69 1.69 19.75C2.28 19.36 2.75 19.08 3 18.94C3.57 19.19 5.28 19.99 6.67 21.02C6.79 21.43 6.9 21.88 7 22.36C7.04 22.57 7.22 22.72 7.43 22.72C7.46 22.72 7.49 22.71 7.52 22.71C7.75 22.66 7.91 22.43 7.86 22.19C7.77 21.73 7.66 21.29 7.55 20.89C8.86 19.64 10.25 18.58 10.78 18.17C11.38 18.53 12.93 19.41 14.56 19.98L14.56 24.58C12.52 25.29 10.61 26.49 10.53 26.54C10.41 26.61 10.34 26.73 10.32 26.86ZM15 29.12C13.66 29.12 12.35 28.93 11.1 28.57C11.12 27.93 11.15 27.44 11.18 27.17C11.71 26.85 13.35 25.91 15 25.35C16.64 25.91 18.28 26.85 18.81 27.17C18.84 27.44 18.87 27.93 18.89 28.57C17.64 28.93 16.33 29.12 15 29.12ZM19.76 28.29C19.73 27.44 19.67 26.89 19.67 26.86C19.65 26.73 19.58 26.61 19.46 26.54C19.38 26.49 17.47 25.29 15.43 24.58L15.43 19.98C17.06 19.41 18.61 18.53 19.21 18.17C19.74 18.57 21.13 19.64 22.44 20.89C21.85 22.98 21.73 25.26 21.72 25.36C21.72 25.5 21.77 25.63 21.87 25.72C21.9 25.73 22.32 26.1 23.01 26.63C22 27.32 20.91 27.88 19.76 28.29ZM24.98 24.98C24.59 25.37 24.17 25.74 23.74 26.08C23.22 25.69 22.82 25.36 22.62 25.19C22.66 24.57 22.83 22.68 23.32 21.02C24.71 19.99 26.42 19.19 27 18.94C27.24 19.08 27.71 19.36 28.3 19.75C27.61 21.69 26.48 23.48 24.98 24.98ZM27.23 18.06C27.12 18 26.98 17.99 26.85 18.04C26.76 18.08 24.72 18.94 22.98 20.18C21.61 18.88 20.21 17.82 19.69 17.44C19.73 17.02 19.75 16.59 19.77 16.15C19.78 15.91 19.59 15.71 19.35 15.7C19.11 15.69 18.9 15.88 18.89 16.12C18.88 16.55 18.85 16.98 18.81 17.39C18.28 17.71 16.64 18.65 15 19.2C13.35 18.65 11.71 17.71 11.18 17.39C10.99 15.26 11.12 13.26 11.18 12.62C11.71 12.29 13.35 11.35 15 10.8C16.64 11.35 18.28 12.29 18.81 12.62C18.83 12.86 18.87 13.29 18.89 13.85C18.9 14.09 19.1 14.28 19.34 14.27C19.59 14.26 19.78 14.06 19.77 13.82C19.74 13.27 19.71 12.84 19.69 12.58C20.22 12.23 21.58 11.32 22.96 10.19C24.7 11.44 26.76 12.31 26.85 12.35C26.91 12.37 26.96 12.38 27.02 12.38C27.1 12.38 27.17 12.36 27.24 12.33C27.7 12.06 28.18 11.77 28.67 11.45C28.97 12.6 29.12 13.78 29.12 15C29.12 16.33 28.93 17.63 28.58 18.88C27.79 18.37 27.26 18.08 27.23 18.06Z" fill="#E5E5E5" fill-opacity="1.000000" fill-rule="nonzero"/>
</svg>
