<svg width="35.000000" height="30.000000" viewBox="0 0 35 30" fill="none" xmlns="http://www.w3.org/2000/svg" xmlns:xlink="http://www.w3.org/1999/xlink">
	<desc>
			Created with Pixso.
	</desc>
	<defs/>
	<path id="Singing" d="M1.75 29.14L4.02 27.23L5.47 28.45C5.86 28.77 6.48 28.79 6.88 28.48L21.38 17.46L22.14 18.1C22.54 18.43 23.19 18.43 23.59 18.1L26.49 15.66C26.57 15.6 26.63 15.53 26.68 15.45C28.45 15.31 30.13 14.73 31.53 13.8L32.29 14.44C32.69 14.78 33.34 14.78 33.74 14.44C34.14 14.11 34.14 13.56 33.74 13.22L32.98 12.58C35.87 9.55 35.66 5.09 32.29 2.26C28.94 -0.56 23.63 -0.75 20.01 1.69L19.24 1.04C18.84 0.71 18.19 0.71 17.79 1.04C17.39 1.38 17.39 1.93 17.79 2.26L18.56 2.9C17.45 4.08 16.76 5.49 16.59 6.98C16.5 7.02 16.42 7.07 16.34 7.13L13.44 9.57C13.04 9.91 13.04 10.45 13.44 10.79L14.2 11.43L1.08 23.61C0.72 23.95 0.73 24.47 1.12 24.8L2.57 26.01L0.3 27.92C-0.11 28.26 -0.11 28.8 0.3 29.14C0.7 29.48 1.34 29.48 1.75 29.14ZM30.84 3.48C33.41 5.64 33.61 9.01 31.52 11.35L21.47 2.91C24.25 1.16 28.27 1.32 30.84 3.48ZM30.07 12.57C28.81 13.36 27.27 13.78 25.69 13.77L18.6 7.81C18.58 6.48 19.08 5.19 20.02 4.13L30.07 12.57ZM17.07 8.96L24.32 15.05L22.87 16.27L15.62 10.18L17.07 8.96ZM9.27 24.34L6.01 21.6L15.66 12.65L19.93 16.24L9.27 24.34ZM4.64 22.88L7.75 25.49L6.23 26.65L3.26 24.16L4.64 22.88Z" fill="#E5E5E5" fill-opacity="1.000000" fill-rule="nonzero"/>
</svg>
