<svg width="25.000000" height="25.000000" viewBox="0 0 25 25" fill="none" xmlns="http://www.w3.org/2000/svg" xmlns:xlink="http://www.w3.org/1999/xlink">
	<desc>
			Created with Pixso.
	</desc>
	<defs>
		<clipPath id="clip288_151">
			<rect id="photoshop" width="25.000000" height="25.000000" fill="white" fill-opacity="0"/>
		</clipPath>
	</defs>
	<rect id="photoshop" width="25.000000" height="25.000000" fill="#FFFFFF" fill-opacity="0"/>
	<g clip-path="url(#clip288_151)">
		<path id="Vector" d="M25 25L0 25L0 0L25 0L25 25Z" fill="#00C3FF" fill-opacity="1.000000" fill-rule="nonzero"/>
		<path id="Vector" d="M25 25L12.5 25L12.5 0L25 0L25 25Z" fill="#00C3FF" fill-opacity="1.000000" fill-rule="nonzero"/>
		<path id="Vector" d="M23.53 23.53L1.46 23.53L1.46 1.46L23.53 1.46L23.53 23.53Z" fill="#063E8B" fill-opacity="1.000000" fill-rule="nonzero"/>
		<path id="Vector" d="M23.53 23.53L12.5 23.53L12.5 1.46L23.53 1.46L23.53 23.53Z" fill="#063E8B" fill-opacity="1.000000" fill-rule="nonzero"/>
		<path id="Vector" d="M12.5 21.99C11.91 21.99 11.36 21.76 10.94 21.34L3.65 14.05C3.23 13.63 3 13.08 3 12.5C3 11.91 3.23 11.36 3.65 10.94L10.94 3.65C11.36 3.23 11.91 3 12.5 3C13.08 3 13.63 3.23 14.05 3.65L21.34 10.94C21.76 11.36 21.99 11.91 21.99 12.5C21.99 13.08 21.76 13.63 21.34 14.05L14.05 21.34C13.63 21.76 13.08 21.99 12.5 21.99ZM12.5 4.47C12.3 4.47 12.12 4.55 11.98 4.68L4.68 11.98C4.55 12.12 4.47 12.3 4.47 12.5C4.47 12.69 4.55 12.87 4.68 13.01L11.98 20.31C12.12 20.45 12.3 20.52 12.5 20.52C12.69 20.52 12.87 20.45 13.01 20.31L20.31 13.01C20.45 12.87 20.52 12.69 20.52 12.5C20.52 12.3 20.45 12.12 20.31 11.98L13.01 4.68C12.87 4.55 12.69 4.47 12.5 4.47Z" fill="#CCEFFF" fill-opacity="1.000000" fill-rule="nonzero"/>
		<path id="Vector" d="M21.34 10.94L14.05 3.65C13.63 3.23 13.08 3 12.5 3L12.5 4.47C12.69 4.47 12.87 4.55 13.01 4.68L20.31 11.98C20.45 12.12 20.52 12.3 20.52 12.5C20.52 12.69 20.45 12.87 20.31 13.01L13.01 20.31C12.87 20.45 12.69 20.52 12.5 20.52L12.5 21.99C13.08 21.99 13.63 21.76 14.05 21.34L21.34 14.05C21.76 13.63 21.99 13.08 21.99 12.5C21.99 11.91 21.76 11.36 21.34 10.94Z" fill="#CCEFFF" fill-opacity="1.000000" fill-rule="nonzero"/>
		<path id="Vector" d="M15.08 15.21C14.14 15.21 13.47 14.78 13.23 14.58L13.62 13.92C13.87 14.1 14.45 14.46 15.06 14.46C15.46 14.46 15.73 14.29 15.73 14.01C15.73 13.65 15.15 13.54 14.83 13.45C14.57 13.38 13.37 13.21 13.37 12.31C13.37 11.45 14.13 10.96 14.98 10.96C15.88 10.96 16.36 11.32 16.58 11.52L16.16 12.16C15.95 12 15.49 11.7 14.97 11.7C14.59 11.7 14.35 11.86 14.35 12.16C14.35 12.54 15 12.64 15.15 12.68C15.44 12.75 16.74 12.95 16.74 13.91C16.74 15.05 15.59 15.21 15.08 15.21Z" fill="#00C3FF" fill-opacity="1.000000" fill-rule="nonzero"/>
		<path id="Vector" d="M8.77 15.13L8.77 9.58L11.12 9.58C12.2 9.58 12.89 10.57 12.89 11.43C12.89 12.44 12.12 13.27 11.16 13.27L9.85 13.27L9.85 15.13L8.77 15.13ZM9.85 12.33L11.1 12.33C11.48 12.33 11.79 11.97 11.79 11.43C11.79 10.96 11.51 10.53 11.05 10.53L9.85 10.53L9.85 12.33Z" fill="#00C3FF" fill-opacity="1.000000" fill-rule="nonzero"/>
		<path id="Vector" d="M12.5 10.29L12.5 12.6C12.74 12.28 12.89 11.87 12.89 11.43C12.89 11.04 12.75 10.63 12.5 10.29Z" fill="#00C3FF" fill-opacity="1.000000" fill-rule="nonzero"/>
	</g>
</svg>
