<svg width="25.000000" height="25.000000" viewBox="0 0 25 25" fill="none" xmlns="http://www.w3.org/2000/svg" xmlns:xlink="http://www.w3.org/1999/xlink">
	<desc>
			Created with Pixso.
	</desc>
	<defs>
		<clipPath id="clip288_180">
			<rect id="experience 1" width="25.000000" height="25.000000" fill="white" fill-opacity="0"/>
		</clipPath>
	</defs>
	<rect id="experience 1" width="25.000000" height="25.000000" fill="#FFFFFF" fill-opacity="0"/>
	<g clip-path="url(#clip288_180)">
		<path id="Vector" d="M25 25L0 25L0 0L25 0L25 25Z" fill="#FF80E4" fill-opacity="1.000000" fill-rule="nonzero"/>
		<path id="Vector" d="M25 25L12.5 25L12.5 0L25 0L25 25Z" fill="#FF80E4" fill-opacity="1.000000" fill-rule="nonzero"/>
		<path id="Vector" d="M23.53 23.53L1.46 23.53L1.46 1.46L23.53 1.46L23.53 23.53Z" fill="#7F1363" fill-opacity="1.000000" fill-rule="nonzero"/>
		<path id="Vector" d="M23.53 23.53L12.5 23.53L12.5 1.46L23.53 1.46L23.53 23.53Z" fill="#7F1363" fill-opacity="1.000000" fill-rule="nonzero"/>
		<path id="Vector" d="M7.15 8.86L9.22 11.96L11.28 8.86L13.03 8.86L10.06 13.08L12.94 17.18L11.19 17.18L9.22 14.21L7.24 17.18L5.48 17.18L8.35 13.08L5.39 8.86L7.15 8.86Z" fill="#FF80E4" fill-opacity="1.000000" fill-rule="nonzero"/>
		<path id="Vector" d="M15.9 17.3C14.1 17.3 12.98 15.8 12.98 14.11C12.98 12.2 14.27 10.94 15.72 10.94C16.96 10.94 17.6 11.77 17.8 12.12L17.8 8.63L19.37 8.63L19.37 15.38C19.37 15.54 19.6 15.84 19.73 15.85L19.73 17.18C19.46 17.24 19.24 17.26 19.06 17.26C17.93 17.26 18.03 16.12 18.03 16.12C17.81 16.51 17.13 17.3 15.9 17.3ZM16.31 15.96C17.3 15.96 17.74 15.08 17.8 14.93L17.8 13.47C17.74 13.3 17.17 12.27 16.22 12.27C15.15 12.27 14.61 13.33 14.61 14.15C14.61 15.04 15.27 15.96 16.31 15.96Z" fill="#FF80E4" fill-opacity="1.000000" fill-rule="nonzero"/>
		<path id="Vector" d="M12.5 8.86L12.5 9.62L13.03 8.86L12.5 8.86Z" fill="#FF80E4" fill-opacity="1.000000" fill-rule="nonzero"/>
		<path id="Vector" d="M12.5 17.18L12.94 17.18L12.5 16.55L12.5 17.18Z" fill="#FF80E4" fill-opacity="1.000000" fill-rule="nonzero"/>
	</g>
</svg>
