<svg width="20.000000" height="31.000000" viewBox="0 0 20 31" fill="none" xmlns="http://www.w3.org/2000/svg" xmlns:xlink="http://www.w3.org/1999/xlink">
	<desc>
			Created with Pixso.
	</desc>
	<defs/>
	<path id="Vector" d="M19.58 19.48C18.93 18.75 17.93 18.67 17.12 19.25C16.16 19.94 14.76 20.82 13.6 21.39C13.22 20.26 13.06 18.75 12.75 17.54L12.78 10.58C12.78 10.58 17.02 10.08 18.24 9.91C19.55 9.8 19.75 8.78 19.47 8.06C19.4 7.89 17.7 3.54 17.4 2.7C17.11 1.88 16.33 1.39 15.32 1.64C14.38 1.88 14.1 2.68 14.38 3.5C14.78 4.66 15.84 7.45 15.84 7.45L12.12 7.89L6.12 6.74C4.59 5.3 3.6 3.68 3.24 1.35C3.11 0.49 2.51 -0.11 1.41 0.01C0.44 0.11 -0.12 0.92 0.01 1.77C0.55 5.29 2.33 8.27 5.05 10.25L5.05 17.15C3.19 21.4 3.16 25.79 5.92 29.69C6.28 30.2 6.89 30.47 7.51 30.47C7.86 30.47 8.2 30.39 8.51 30.21C9.39 29.72 9.66 28.69 9.1 27.9C7.58 25.74 6.87 23.12 7.63 20.08C7.76 19.59 8.26 19.24 8.82 19.26L8.82 19.26C9.35 19.28 9.8 19.61 9.92 20.07C10.26 21.37 10.42 22.65 10.67 23.44C11.17 24.99 12.91 25.27 14.01 24.75C16.26 23.7 17.66 22.94 19.28 21.83C20.11 21.27 20.23 20.2 19.58 19.48Z" fill="#E5E5E5" fill-opacity="1.000000" fill-rule="nonzero"/>
	<path id="Vector" d="M12.54 3.98C12.54 5.4 11.25 6.55 9.66 6.55C8.06 6.55 6.77 5.4 6.77 3.98C6.77 2.56 8.06 1.41 9.66 1.41C11.25 1.41 12.54 2.56 12.54 3.98Z" fill="#E5E5E5" fill-opacity="1.000000" fill-rule="evenodd"/>
</svg>
