<svg width="25.000000" height="25.000000" viewBox="0 0 25 25" fill="none" xmlns="http://www.w3.org/2000/svg" xmlns:xlink="http://www.w3.org/1999/xlink">
	<desc>
			Created with Pixso.
	</desc>
	<defs>
		<clipPath id="clip288_195">
			<rect id="indesign 1" width="25.000000" height="25.000000" fill="white" fill-opacity="0"/>
		</clipPath>
	</defs>
	<rect id="indesign 1" width="25.000000" height="25.000000" fill="#FFFFFF" fill-opacity="0"/>
	<g clip-path="url(#clip288_195)">
		<path id="Vector" d="M25 25L0 25L0 0L25 0L25 25Z" fill="#FF5F96" fill-opacity="1.000000" fill-rule="nonzero"/>
		<path id="Vector" d="M25 25L12.5 25L12.5 0L25 0L25 25Z" fill="#FF5F96" fill-opacity="1.000000" fill-rule="nonzero"/>
		<path id="Vector" d="M23.53 23.53L1.46 23.53L1.46 1.46L23.53 1.46L23.53 23.53Z" fill="#7F1D32" fill-opacity="1.000000" fill-rule="nonzero"/>
		<path id="Vector" d="M23.53 23.53L12.5 23.53L12.5 1.46L23.53 1.46L23.53 23.53Z" fill="#7F1D32" fill-opacity="1.000000" fill-rule="nonzero"/>
		<path id="Vector" d="M8.02 17.18L8.02 8.86L9.63 8.86L9.63 17.18L8.02 17.18Z" fill="#FF5F96" fill-opacity="1.000000" fill-rule="nonzero"/>
		<path id="Vector" d="M13.69 17.3C11.88 17.3 10.77 15.8 10.77 14.11C10.77 12.2 12.06 10.94 13.51 10.94C14.75 10.94 15.38 11.77 15.59 12.12L15.59 8.63L17.16 8.63L17.16 15.38C17.16 15.54 17.39 15.84 17.52 15.85L17.52 17.18C17.25 17.24 17.02 17.26 16.85 17.26C15.72 17.26 15.82 16.12 15.82 16.12C15.59 16.51 14.92 17.3 13.69 17.3ZM14.1 15.96C15.08 15.96 15.53 15.08 15.59 14.93L15.59 13.47C15.52 13.3 14.96 12.27 14 12.27C12.93 12.27 12.4 13.33 12.4 14.15C12.4 15.04 13.06 15.96 14.1 15.96Z" fill="#FF5F96" fill-opacity="1.000000" fill-rule="nonzero"/>
		<path id="Vector" d="M17.16 15.38L17.16 8.63L15.59 8.63L15.59 12.12C15.38 11.77 14.75 10.94 13.51 10.94C13.16 10.94 12.81 11.01 12.5 11.15L12.5 13.52C12.69 12.88 13.2 12.27 14 12.27C14.96 12.27 15.52 13.3 15.59 13.47L15.59 14.93C15.53 15.08 15.08 15.96 14.1 15.96C13.29 15.96 12.71 15.41 12.5 14.74L12.5 17.05C12.85 17.21 13.25 17.3 13.69 17.3C14.92 17.3 15.59 16.51 15.82 16.12C15.82 16.12 15.72 17.26 16.85 17.26C17.02 17.26 17.25 17.24 17.52 17.18L17.52 15.85C17.39 15.84 17.16 15.54 17.16 15.38Z" fill="#FF5F96" fill-opacity="1.000000" fill-rule="nonzero"/>
	</g>
</svg>
