<svg width="24.000000" height="24.000000" viewBox="0 0 24 24" fill="none" xmlns="http://www.w3.org/2000/svg" xmlns:xlink="http://www.w3.org/1999/xlink">
	<desc>
			Created with Pixso.
	</desc>
	<defs>
		<clipPath id="clip288_82">
			<rect id="mdi_call" width="24.000000" height="24.000000" transform="translate(-0.266602 0.000000)" fill="white" fill-opacity="0"/>
		</clipPath>
	</defs>
	<rect id="mdi_call" width="24.000000" height="24.000000" transform="translate(-0.266602 0.000000)" fill="#FFFFFF" fill-opacity="0"/>
	<g clip-path="url(#clip288_82)">
		<path id="Vector" d="M19.74 15.37C18.51 15.37 17.32 15.17 16.21 14.82C15.86 14.7 15.47 14.79 15.2 15.06L13.63 17.03C10.8 15.67 8.15 13.12 6.74 10.2L8.69 8.54C8.96 8.26 9.04 7.87 8.93 7.52C8.56 6.4 8.37 5.21 8.37 3.98C8.37 3.44 7.92 3 7.38 3L3.92 3C3.38 3 2.73 3.23 2.73 3.98C2.73 13.28 10.46 21 19.74 21C20.45 21 20.73 20.37 20.73 19.82L20.73 16.37C20.73 15.83 20.28 15.37 19.74 15.37Z" fill="#FFFFFF" fill-opacity="1.000000" fill-rule="nonzero"/>
	</g>
</svg>
