<svg width="24.000000" height="24.000000" viewBox="0 0 24 24" fill="none" xmlns="http://www.w3.org/2000/svg" xmlns:xlink="http://www.w3.org/1999/xlink">
	<desc>
			Created with Pixso.
	</desc>
	<defs>
		<clipPath id="clip288_88">
			<rect id="website" width="24.000000" height="24.000000" transform="translate(-0.266602 0.000000)" fill="white" fill-opacity="0"/>
		</clipPath>
	</defs>
	<rect id="website" width="24.000000" height="24.000000" transform="translate(-0.266602 0.000000)" fill="#FFFFFF" fill-opacity="0"/>
	<g clip-path="url(#clip288_88)">
		<path id="Vector" d="M19.85 3.88C17.68 1.71 14.79 0.51 11.73 0.51C8.66 0.51 5.78 1.71 3.61 3.88C1.44 6.05 0.24 8.93 0.24 12C0.24 15.06 1.44 17.95 3.61 20.11C5.78 22.28 8.66 23.48 11.73 23.48C14.79 23.48 17.68 22.28 19.85 20.11C22.01 17.94 23.21 15.06 23.21 12C23.21 8.93 22.02 6.04 19.85 3.88ZM22.17 11.48L17.72 11.48C17.68 9.71 17.43 8 16.99 6.49C17.84 6.05 18.63 5.5 19.36 4.86C21 6.61 22.05 8.92 22.17 11.48ZM12.24 12.51L16.69 12.51C16.65 14.14 16.43 15.7 16.04 17.1C14.84 16.62 13.56 16.34 12.24 16.27L12.24 12.51ZM18.62 4.14C18.02 4.67 17.36 5.12 16.67 5.49C16.49 5 16.29 4.53 16.06 4.09C15.62 3.21 15.11 2.48 14.56 1.93C16.08 2.36 17.46 3.12 18.62 4.14ZM12.24 1.7C13.32 1.94 14.33 2.93 15.15 4.54C15.37 4.98 15.56 5.44 15.74 5.93C14.63 6.39 13.46 6.66 12.24 6.72L12.24 1.7ZM16.05 6.92C16.43 8.31 16.65 9.86 16.69 11.48L12.24 11.48L12.24 7.75C13.57 7.69 14.85 7.41 16.05 6.92ZM11.21 11.48L6.76 11.48C6.8 9.86 7.02 8.31 7.41 6.92C8.61 7.41 9.89 7.69 11.21 7.74L11.21 11.48L11.21 11.48ZM11.22 1.7L11.22 6.72C10 6.66 8.82 6.39 7.73 5.93C7.9 5.44 8.1 4.98 8.32 4.54C9.13 2.93 10.14 1.94 11.22 1.7ZM8.91 1.93C8.35 2.48 7.84 3.21 7.4 4.09C7.18 4.53 6.98 5 6.79 5.49C6.1 5.12 5.45 4.67 4.84 4.14C6 3.12 7.38 2.36 8.91 1.93ZM4.1 4.86C4.83 5.5 5.62 6.05 6.47 6.49C6.03 8.01 5.78 9.71 5.74 11.48L1.29 11.48C1.42 8.92 2.46 6.61 4.1 4.86ZM1.29 12.51L5.74 12.51C5.78 14.3 6.04 16.01 6.48 17.53C5.63 17.97 4.84 18.51 4.12 19.15C2.47 17.39 1.42 15.07 1.29 12.51ZM4.86 19.87C5.46 19.35 6.11 18.89 6.8 18.52C6.98 19.01 7.18 19.47 7.4 19.9C7.84 20.78 8.35 21.51 8.91 22.06C7.39 21.64 6.01 20.88 4.86 19.87ZM11.22 22.29C10.14 22.05 9.13 21.06 8.32 19.45C8.1 19.02 7.91 18.57 7.73 18.08C8.83 17.63 10.01 17.36 11.22 17.31L11.22 22.29ZM7.42 17.1C7.03 15.7 6.81 14.14 6.77 12.51L11.22 12.51L11.22 16.27C9.9 16.33 8.62 16.61 7.42 17.1ZM12.25 22.29L12.25 17.31C13.46 17.37 14.63 17.63 15.73 18.08C15.56 18.57 15.37 19.02 15.15 19.45C14.33 21.06 13.32 22.05 12.25 22.29ZM14.56 22.06C15.12 21.51 15.62 20.78 16.07 19.9C16.29 19.47 16.49 19 16.66 18.52C17.35 18.89 18.01 19.34 18.6 19.87C17.45 20.88 16.07 21.64 14.56 22.06ZM19.35 19.15C18.63 18.51 17.84 17.97 16.99 17.53C17.43 16.01 17.69 14.29 17.73 12.51L22.18 12.51C22.05 15.07 21 17.39 19.35 19.15Z" fill="#FFFFFF" fill-opacity="1.000000" fill-rule="nonzero"/>
	</g>
</svg>
