<svg width="25.000000" height="30.000000" viewBox="0 0 25 30" fill="none" xmlns="http://www.w3.org/2000/svg" xmlns:xlink="http://www.w3.org/1999/xlink">
	<desc>
			Created with Pixso.
	</desc>
	<defs/>
	<rect id="css3" width="25.000000" height="30.000000" fill="#FFFFFF" fill-opacity="0"/>
	<path id="Vector" d="M0 0L2.27 27L12.5 30L22.71 27L25 0L0 0Z" fill="#2196F3" fill-opacity="1.000000" fill-rule="nonzero"/>
	<path id="Vector" d="M20.13 8.82L19.84 12.22L18.97 22.38L12.5 24.27L12.49 24.27L6.02 22.38L5.56 17.07L8.74 17.07L8.97 19.83L12.49 20.82L12.49 20.82L16.02 19.82L16.5 15.23L5.41 15.26L5.1 12.12L16.76 11.97L17 8.61L4.79 8.64L4.58 5.52L12.5 5.52L20.41 5.52L20.13 8.82Z" fill="#FAFAFA" fill-opacity="1.000000" fill-rule="nonzero"/>
</svg>
