<svg width="25.000000" height="25.000000" viewBox="0 0 25 25" fill="none" xmlns="http://www.w3.org/2000/svg" xmlns:xlink="http://www.w3.org/1999/xlink">
	<desc>
			Created with Pixso.
	</desc>
	<defs>
		<clipPath id="clip288_166">
			<rect id="illustrator 1" width="25.000000" height="25.000000" fill="white" fill-opacity="0"/>
		</clipPath>
	</defs>
	<rect id="illustrator 1" width="25.000000" height="25.000000" fill="#FFFFFF" fill-opacity="0"/>
	<g clip-path="url(#clip288_166)">
		<path id="Vector" d="M25 25L0 25L0 0L25 0L25 25Z" fill="#FEC478" fill-opacity="1.000000" fill-rule="nonzero"/>
		<path id="Vector" d="M25 25L12.5 25L12.5 0L25 0L25 25Z" fill="#FEC478" fill-opacity="1.000000" fill-rule="nonzero"/>
		<path id="Vector" d="M23.53 23.53L1.46 23.53L1.46 1.46L23.53 1.46L23.53 23.53Z" fill="#994C0F" fill-opacity="1.000000" fill-rule="nonzero"/>
		<path id="Vector" d="M23.53 23.53L12.5 23.53L12.5 1.46L23.53 1.46L23.53 23.53Z" fill="#994C0F" fill-opacity="1.000000" fill-rule="nonzero"/>
		<path id="Vector" d="M10.13 8.86L11.56 8.86L14.72 17.18L13.06 17.18L12.28 15.11L9.38 15.11L8.62 17.18L6.95 17.18L10.13 8.86ZM11.99 13.97L10.84 10.7L9.65 13.97L11.99 13.97Z" fill="#FEC478" fill-opacity="1.000000" fill-rule="nonzero"/>
		<path id="Vector" d="M15.48 10.19L15.48 8.63L17.05 8.63L17.05 10.19L15.48 10.19ZM15.48 17.18L15.48 11.04L17.05 11.04L17.05 17.18L15.48 17.18Z" fill="#FEC478" fill-opacity="1.000000" fill-rule="nonzero"/>
		<path id="Vector" d="M12.5 11.33L12.5 15.68L13.06 17.18L14.72 17.18L12.5 11.33Z" fill="#FEC478" fill-opacity="1.000000" fill-rule="nonzero"/>
	</g>
</svg>
